<?xml version="1.0" encoding="UTF-8" standalone="no"?><!-- Generator: Gravit.io --><svg xmlns="http://www.w3.org/2000/svg" xmlns:xlink="http://www.w3.org/1999/xlink" style="isolation:isolate" viewBox="0 0 300 250" width="300pt" height="250pt"><defs><clipPath id="_clipPath_PxCAFaEIw388Rvj06gzK5neELS19EHOZ"><rect width="300" height="250"/></clipPath></defs><g clip-path="url(#_clipPath_PxCAFaEIw388Rvj06gzK5neELS19EHOZ)"><g><path d=" M 147.5 75.913 L 148 78.413 L 147 78.413 L 147.5 75.913 Z " fill="rgb(0,0,0)" vector-effect="non-scaling-stroke" stroke-width="1" stroke="rgb(0,0,0)" stroke-opacity="100" stroke-linejoin="miter" stroke-linecap="butt" stroke-miterlimit="4"/><path d=" M 147.5 80.913 L 148 83.413 L 147 83.413 L 147.5 80.913 Z " fill="rgb(0,0,0)" vector-effect="non-scaling-stroke" stroke-width="1" stroke="rgb(0,0,0)" stroke-opacity="100" stroke-linejoin="miter" stroke-linecap="butt" stroke-miterlimit="4"/><path d=" M 124.5 123.913 L 127 125.413 L 125.5 125.913 L 124.5 123.913 Z " fill="rgb(0,0,0)" vector-effect="non-scaling-stroke" stroke-width="1" stroke="rgb(0,0,0)" stroke-opacity="100" stroke-linejoin="miter" stroke-linecap="butt" stroke-miterlimit="4"/><line x1="130.5" y1="128.913" x2="131.5" y2="130.913" vector-effect="non-scaling-stroke" stroke-width="1" stroke="rgb(0,0,0)" stroke-opacity="100" stroke-linejoin="miter" stroke-linecap="butt" stroke-miterlimit="4"/><line x1="134.5" y1="131.913" x2="137.5" y2="135.913" vector-effect="non-scaling-stroke" stroke-width="1" stroke="rgb(0,0,0)" stroke-opacity="100" stroke-linejoin="miter" stroke-linecap="butt" stroke-miterlimit="4"/><path d=" M 154.5 133.913 L 156 138.413 L 154 137.413 L 154.5 133.913 Z " fill="rgb(0,0,0)" vector-effect="non-scaling-stroke" stroke-width="1" stroke="rgb(0,0,0)" stroke-opacity="100" stroke-linejoin="miter" stroke-linecap="butt" stroke-miterlimit="4"/><path d=" M 147.5 59.913 L 148 62.413 L 147 62.413 L 147.5 59.913 Z " fill="rgb(0,0,127)" vector-effect="non-scaling-stroke" stroke-width="1" stroke="rgb(0,0,127)" stroke-opacity="100" stroke-linejoin="miter" stroke-linecap="butt" stroke-miterlimit="4"/><path d=" M 147.5 67.913 L 148 75.413 L 147 75.413 L 147.5 67.913 Z " fill="rgb(0,0,127)" vector-effect="non-scaling-stroke" stroke-width="1" stroke="rgb(0,0,127)" stroke-opacity="100" stroke-linejoin="miter" stroke-linecap="butt" stroke-miterlimit="4"/><path d=" M 151.5 86.913 L 152 89.413 L 151 89.413 L 151.5 86.913 Z " fill="rgb(0,0,127)" vector-effect="non-scaling-stroke" stroke-width="1" stroke="rgb(0,0,127)" stroke-opacity="100" stroke-linejoin="miter" stroke-linecap="butt" stroke-miterlimit="4"/><path d=" M 151.5 90.913 L 153 93.413 L 151 92.413 L 151.5 90.913 Z " fill="rgb(0,0,127)" vector-effect="non-scaling-stroke" stroke-width="1" stroke="rgb(0,0,127)" stroke-opacity="100" stroke-linejoin="miter" stroke-linecap="butt" stroke-miterlimit="4"/><path d=" M 153.5 102.913 L 155 109.413 L 154 109.413 L 153.5 102.913 Z " fill="rgb(0,0,127)" vector-effect="non-scaling-stroke" stroke-width="1" stroke="rgb(0,0,127)" stroke-opacity="100" stroke-linejoin="miter" stroke-linecap="butt" stroke-miterlimit="4"/><path d=" M 154.5 112.913 L 156 112.913 L 156 117.413 L 156.5 118.913 L 154.5 112.913 Z " fill="rgb(0,0,127)" vector-effect="non-scaling-stroke" stroke-width="1" stroke="rgb(0,0,127)" stroke-opacity="100" stroke-linejoin="miter" stroke-linecap="butt" stroke-miterlimit="4"/><line x1="271.5" y1="127.913" x2="273.5" y2="130.913" vector-effect="non-scaling-stroke" stroke-width="1" stroke="rgb(0,0,127)" stroke-opacity="100" stroke-linejoin="miter" stroke-linecap="butt" stroke-miterlimit="4"/><line x1="131.5" y1="128.913" x2="132.5" y2="130.913" vector-effect="non-scaling-stroke" stroke-width="1" stroke="rgb(0,0,127)" stroke-opacity="100" stroke-linejoin="miter" stroke-linecap="butt" stroke-miterlimit="4"/><line x1="153.5" y1="128.913" x2="152.5" y2="130.913" vector-effect="non-scaling-stroke" stroke-width="1" stroke="rgb(0,0,127)" stroke-opacity="100" stroke-linejoin="miter" stroke-linecap="butt" stroke-miterlimit="4"/><path d=" M 42 91.913 L 80.5 94.913 L 83.5 94.913 L 86.5 94.913 L 92.5 95.913 L 109 96.913 L 110.5 98.913 L 113 102.913 L 117 106.413 L 123 112.413 L 132 122.413 L 123.5 122.913 L 121 122.913 L 119.5 122.913 L 92.5 120.913 L 74.5 118.913 L 46 97.913 L 44 95.913 L 42 91.913 Z  M 94 97.913 L 97 101.913 L 98 101.913 L 94 97.913 Z  M 89 100.913 L 90 102.913 L 91 102.913 L 89 100.913 Z  M 99 101.913 L 107 109.913 L 108 109.913 L 99 101.913 Z  M 94 104.913 L 99 110.913 L 100 110.913 L 94 104.913 Z  M 110 110.913 L 109 112.913 L 112 113.913 L 112 111.913 L 110 110.913 Z  M 102 111.913 L 105 115.913 L 106 115.913 L 102 111.913 Z  M 113 113.913 L 114 115.913 L 115 115.913 L 113 113.913 Z  M 116 115.913 L 115 117.913 L 117 117.913 L 116 115.913 Z  M 109 117.913 L 110 119.913 L 110 117.913 L 109 117.913 Z  M 118 117.913 L 120 120.913 L 121 120.913 L 118 117.913 Z " fill="rgb(193,120,181)" vector-effect="non-scaling-stroke" stroke-width="1" stroke="rgb(168,99,156)" stroke-linejoin="miter" stroke-linecap="butt" stroke-miterlimit="4"/><path d=" M 128.5 98.913 L 128.598 98.918 L 148 99.913 L 149 115.413 L 151 124.913 L 136 123.913 L 132 115.413 L 132 113.413 L 128.5 98.913 Z " fill="rgb(193,120,181)" vector-effect="non-scaling-stroke" stroke-width="1" stroke="rgb(168,99,156)" stroke-linejoin="miter" stroke-linecap="butt" stroke-miterlimit="4"/><path d=" M 149 99.913 L 152.5 100.913 L 166.5 100.913 L 172 101.913 Q 171.859 111.37 171 116.413 Q 170.419 119.824 168.696 125.981 L 158 124.913 L 157.5 122.913 L 157 124.913 L 153.343 125.029 L 152.377 123.268 L 149 99.913 Z  M 154 102.913 L 153 106.913 L 154 106.913 L 154 102.913 Z  M 155 106.913 L 154 111.913 L 155 111.913 L 155 106.913 Z  M 155 112.913 L 155 117.913 L 156 117.913 L 156 112.913 L 155 112.913 Z  M 157 117.913 L 156 121.913 L 157 121.913 L 157 117.913 Z " fill="rgb(193,120,181)" vector-effect="non-scaling-stroke" stroke-width="1" stroke="rgb(168,99,156)" stroke-linejoin="miter" stroke-linecap="butt" stroke-miterlimit="4"/><path d=" M 191 102.913 L 198 103.913 Q 195.204 112.501 193.375 117.038 Q 191.809 120.922 188.5 127.913 L 183 126.413 L 191 102.913 Z " fill="rgb(193,120,181)" vector-effect="non-scaling-stroke" stroke-width="1" stroke="rgb(193,120,181)" stroke-linejoin="miter" stroke-linecap="butt" stroke-miterlimit="4"/><path d=" M 204.5 106.913 L 229.5 106.913 L 239.5 108.913 L 254.5 114.913 L 271 126.913 L 276 134.413 L 192 127.913 L 198 111.413 L 198 107.913 L 204.5 106.913 Z " fill="rgb(193,120,181)" vector-effect="non-scaling-stroke" stroke-width="1" stroke="rgb(193,120,181)" stroke-linejoin="miter" stroke-linecap="butt" stroke-miterlimit="4"/><path d=" M 70.5 125.913 L 86.5 128.913 L 102.644 137.925 L 89.5 137.913 L 88.5 136.913 L 63.5 135.913 L 62.5 134.913 L 54 134.413 L 70.5 125.913 Z " fill="rgb(254,134,199)" vector-effect="non-scaling-stroke" stroke-width="1" stroke="rgb(254,134,199)" stroke-linejoin="miter" stroke-linecap="butt" stroke-miterlimit="4"/><path d=" M 88.5 126.913 L 130.5 129.913 L 131.5 130.913 L 138.5 130.913 L 140.5 132.913 L 141 130.913 L 153.5 132.913 L 154.5 131.913 L 159.5 131.913 L 160.5 132.913 L 168 132.913 L 167 142.913 L 157.5 142.913 L 157 141.413 L 155.5 141.913 L 148.5 141.913 L 148 140.413 L 147 140.413 L 147 141.913 L 145.5 141.913 L 143.5 141.913 L 141.5 140.913 L 116.5 139.913 L 113.5 138.913 L 111.5 139.913 L 94.5 131.913 L 88.5 127.913 L 88.5 126.913 Z  M 155 133.913 L 154 137.913 L 155 137.913 L 155 133.913 Z  M 140 135.913 L 139 137.913 L 141 137.913 L 140 135.913 Z " fill="rgb(254,134,199)" vector-effect="non-scaling-stroke" stroke-width="1" stroke="rgb(254,134,199)" stroke-linejoin="miter" stroke-linecap="butt" stroke-miterlimit="4"/><path d=" M 180.07 133.938 L 186.908 133.143 L 186 136.413 L 181.158 145.105 L 175 143.913 L 180.07 133.938 Z " fill="rgb(254,134,199)" vector-effect="non-scaling-stroke" stroke-width="1" stroke="rgb(254,134,199)" stroke-linejoin="miter" stroke-linecap="butt" stroke-miterlimit="4"/><path d=" M 189.5 134.913 L 200.5 134.913 L 201.5 135.913 L 213.5 135.913 L 214.5 136.913 L 227.5 136.913 L 228.5 137.913 L 239.5 137.913 L 240.5 138.913 L 280 140.913 L 281 143.413 L 280.063 151.151 L 274.5 150.913 L 263.5 150.913 L 248.5 149.913 L 236.5 148.913 L 222.5 147.913 L 184 144.913 L 189.5 134.913 Z " fill="rgb(254,134,199)" vector-effect="non-scaling-stroke" stroke-width="1" stroke="rgb(254,134,199)" stroke-linejoin="miter" stroke-linecap="butt" stroke-miterlimit="4"/><path d=" M 74.5 118.913 L 77.5 119.913 L 88.5 119.913 L 114.5 121.913 L 124.5 122.913 L 129.5 122.913 L 132.5 122.913 L 135 125.413 L 138.727 130.983 L 133.5 130.913 L 129.5 129.913 L 121 129.913 L 118.5 128.913 L 106.5 128.913 L 87.389 127.531 L 81.5 123.913 L 75.5 119.913 L 74.5 118.913 Z  M 126 124.913 L 127 126.913 L 127 124.913 L 126 124.913 Z " fill="rgb(254,134,199)" vector-effect="non-scaling-stroke" stroke-width="1" stroke="rgb(254,134,199)" stroke-linejoin="miter" stroke-linecap="butt" stroke-miterlimit="4"/><path d=" M 137 123.913 L 150.5 124.913 L 152 126.413 L 153 131.413 L 147.5 131.913 L 146.5 130.913 L 140 130.913 L 137 123.913 Z " fill="rgb(254,134,199)" vector-effect="non-scaling-stroke" stroke-width="1" stroke="rgb(254,134,199)" stroke-linejoin="miter" stroke-linecap="butt" stroke-miterlimit="4"/><path d=" M 153 124.913 L 157 124.913 L 168.5 125.913 L 169 129.413 L 168 132.913 L 154 131.913 L 153 124.913 Z " fill="rgb(254,134,199)" vector-effect="non-scaling-stroke" stroke-width="1" stroke="rgb(254,134,199)" stroke-linejoin="miter" stroke-linecap="butt" stroke-miterlimit="4"/><path d=" M 182.5 126.913 L 189 127.913 L 186.5 134.913 L 180 133.913 L 182.5 126.913 Z " fill="rgb(254,134,199)" vector-effect="non-scaling-stroke" stroke-width="1" stroke="rgb(254,134,199)" stroke-linejoin="miter" stroke-linecap="butt" stroke-miterlimit="4"/><path d=" M 191.783 128.346 L 225.5 129.913 L 251.5 131.913 L 265.5 132.913 Q 275.241 133.634 275.5 133.913 Q 277.545 136.114 280 140.913 L 189.414 135.073 L 191.783 128.346 Z " fill="rgb(254,134,199)" vector-effect="non-scaling-stroke" stroke-width="1" stroke="rgb(254,134,199)" stroke-linejoin="miter" stroke-linecap="butt" stroke-miterlimit="4"/><line x1="261.5" y1="175.913" x2="259.5" y2="178.913" vector-effect="non-scaling-stroke" stroke-width="1" stroke="rgb(127,0,0)" stroke-opacity="100" stroke-linejoin="miter" stroke-linecap="butt" stroke-miterlimit="4"/><line x1="149.5" y1="181.913" x2="147.5" y2="184.913" vector-effect="non-scaling-stroke" stroke-width="1" stroke="rgb(127,0,0)" stroke-opacity="100" stroke-linejoin="miter" stroke-linecap="butt" stroke-miterlimit="4"/><line x1="59.5" y1="185.913" x2="60.5" y2="187.913" vector-effect="non-scaling-stroke" stroke-width="1" stroke="rgb(127,0,0)" stroke-opacity="100" stroke-linejoin="miter" stroke-linecap="butt" stroke-miterlimit="4"/><line x1="144.5" y1="187.913" x2="140.5" y2="192.913" vector-effect="non-scaling-stroke" stroke-width="1" stroke="rgb(127,0,0)" stroke-opacity="100" stroke-linejoin="miter" stroke-linecap="butt" stroke-miterlimit="4"/><path d=" M 201.5 32.913 L 202 35.413 L 201 35.413 L 201.5 32.913 Z " fill="rgb(127,0,127)" vector-effect="non-scaling-stroke" stroke-width="1" stroke="rgb(127,0,127)" stroke-opacity="100" stroke-linejoin="miter" stroke-linecap="butt" stroke-miterlimit="4"/><path d=" M 8 48.913 L 51.5 51.913 L 56.5 53.913 L 78 68.913 L 83 72.913 L 108.938 96.663 L 104.5 96.913 L 91.5 95.913 L 87.5 94.913 L 81.5 94.913 L 63.5 93.913 L 41.998 92.312 L 37.5 87.913 L 34 85.413 L 32.5 82.913 L 29 79.413 L 20 69.413 L 8 48.913 Z  M 42 57.913 L 41 59.913 L 44 60.913 L 45 60.913 L 42 57.913 Z  M 42 61.913 L 41 63.913 L 44 63.913 L 42 61.913 Z  M 48 62.913 L 49 63.913 L 50 64.913 L 50 62.913 L 48 62.913 Z  M 48 66.913 L 49 68.913 L 50 68.913 L 48 66.913 Z  M 54 66.913 L 55 68.913 L 56 68.913 L 54 66.913 Z  M 56 68.913 L 56 70.913 L 60 72.913 L 61 72.913 L 56 68.913 Z  M 52 69.913 L 52 72.913 L 55 72.913 L 52 69.913 Z  M 58 73.913 L 57 75.913 L 60 76.913 L 58 73.913 Z  M 63 73.913 L 65 75.913 L 65 73.913 L 63 73.913 Z  M 68 76.913 L 67 78.913 L 69 78.913 L 68 76.913 Z  M 63 77.913 L 61 79.913 L 66 81.913 L 63 77.913 Z  M 70 78.913 L 74 83.913 L 86 92.913 L 87 92.913 L 70 78.913 Z " fill="rgb(121,183,206)" vector-effect="non-scaling-stroke" stroke-width="1" stroke="rgb(109,166,187)" stroke-linejoin="miter" stroke-linecap="butt" stroke-miterlimit="4"/><path d=" M 131 57.913 L 173 60.913 L 173 61.413 L 173 97.413 L 172 101.913 L 168.5 100.913 L 157.5 100.913 L 151.237 100.094 L 148.706 99.381 L 149 91.413 L 148.166 87.427 L 148 86.413 L 147.5 64.913 L 147 95.413 L 147.637 100.058 L 142.5 99.913 L 131.5 98.913 L 128.363 98.147 L 129 70.413 L 131 57.913 Z  M 148 59.913 L 147 62.913 L 148 62.913 L 148 59.913 Z  M 152 86.913 L 151 89.913 L 152 89.913 L 152 86.913 Z " fill="rgb(121,183,206)" vector-effect="non-scaling-stroke" stroke-width="1" stroke="rgb(109,166,187)" stroke-linejoin="miter" stroke-linecap="butt" stroke-miterlimit="4"/><path d=" M 199.963 63.051 L 208 63.913 L 205 82.413 L 198.165 103.8 L 191 102.413 L 194 95.413 L 200 64.413 L 199.963 63.051 Z " fill="rgb(121,183,206)" vector-effect="non-scaling-stroke" stroke-width="1" stroke="rgb(121,183,206)" stroke-linejoin="miter" stroke-linecap="butt" stroke-miterlimit="4"/><line x1="159.5" y1="7.913" x2="160.5" y2="9.913" vector-effect="non-scaling-stroke" stroke-width="1" stroke="rgb(127,127,127)" stroke-opacity="100" stroke-linejoin="miter" stroke-linecap="butt" stroke-miterlimit="4"/><line x1="149.5" y1="14.913" x2="148.5" y2="16.913" vector-effect="non-scaling-stroke" stroke-width="1" stroke="rgb(127,127,127)" stroke-opacity="100" stroke-linejoin="miter" stroke-linecap="butt" stroke-miterlimit="4"/><line x1="146.5" y1="19.913" x2="145.5" y2="21.913" vector-effect="non-scaling-stroke" stroke-width="1" stroke="rgb(127,127,127)" stroke-opacity="100" stroke-linejoin="miter" stroke-linecap="butt" stroke-miterlimit="4"/><path d=" M 44 158.913 L 50.5 159.913 L 63.5 160.913 L 89.5 162.913 L 103.5 163.913 L 144 166.913 L 144 170.913 L 147.18 169.901 L 150.379 169.444 L 156.391 168.952 L 159.375 165.725 L 166 168.413 L 154.688 181.85 L 149 188.413 L 144.5 193.913 L 138 199.413 L 136.5 200.913 Q 117.744 215.472 122 210.913 Q 122.678 210.186 124 208.913 L 125.5 206.913 L 139 194.413 L 140.5 192.913 L 156 173.413 Q 148.92 172.269 145.5 173.913 Q 143.681 174.787 141 177.413 L 139 183.413 L 131.5 192.913 L 126.5 196.913 Q 119.563 200.645 115.5 201.913 Q 112.073 202.981 105.5 203.913 Q 99.005 204.208 95.5 203.913 Q 89.363 203.396 78.5 199.913 L 66 192.913 L 61 188.413 Q 56.692 184.109 54.635 181.534 Q 51.977 178.207 48 171.413 L 44 158.913 Z " fill="rgb(226,78,64)" vector-effect="non-scaling-stroke" stroke-width="1" stroke="rgb(226,78,64)" stroke-linejoin="miter" stroke-linecap="butt" stroke-miterlimit="4"/><path d=" M 181.719 168.756 L 183.5 169.913 L 194.5 169.913 L 195.5 170.913 L 209.5 171.913 L 222.5 172.913 L 236.5 173.913 Q 269.449 165.826 263 175.913 Q 260.563 179.725 249.5 183.913 L 238.5 187.913 Q 215.187 190.393 203.5 185.913 C 196.31 183.156 189.418 180.941 185 174.413 Q 184.426 173.564 183.5 171.913 L 181.719 168.756 Z " fill="rgb(226,78,64)" vector-effect="non-scaling-stroke" stroke-width="1" stroke="rgb(226,78,64)" stroke-linejoin="miter" stroke-linecap="butt" stroke-miterlimit="4"/><path class="yellow" id="yellow" d=" M 46.5 143.913 L 56.5 145.913 L 81.5 146.913 L 82.5 147.913 L 94.5 147.913 L 95.5 148.913 L 108.5 148.913 L 109.5 149.913 L 121.5 149.913 L 122.5 150.913 L 135.5 150.913 L 140.728 151.935 Q 143.509 157.233 144 160.413 Q 144.35 162.679 144 166.913 L 141.5 165.913 L 116.5 164.913 L 103.5 163.913 L 89.5 162.913 L 63.5 160.913 L 50.5 159.913 L 44 158.913 L 44 149.413 L 46.5 143.913 Z " fill="rgb(249,200,0)" vector-effect="non-scaling-stroke" stroke-width="1" stroke="rgb(249,200,0)" stroke-linejoin="miter" stroke-linecap="butt" stroke-miterlimit="4"/><path id ="yellow" class="yellow" d=" M 147.5 151.913 L 157.5 152.913 L 161.5 156.913 L 162 155.413 L 161 152.913 L 166.5 153.913 L 168.5 154.913 L 169.5 153.913 L 175.5 153.913 L 173 157.413 L 166.305 168.056 L 158 167.413 L 160 164.413 L 156 161.913 L 156 159.913 L 154.5 159.913 L 151 154.913 L 147.5 151.913 Z " fill="rgb(249,200,0)" vector-effect="non-scaling-stroke" stroke-width="1" stroke="rgb(249,200,0)" stroke-linejoin="miter" stroke-linecap="butt" stroke-miterlimit="4"/><path class="yellow" d=" M 180 154.913 L 201.5 155.913 L 202.5 156.913 L 215.5 156.913 L 216.5 157.913 L 228.5 157.913 L 229.5 158.913 L 242.5 158.913 L 243.5 159.913 L 255.5 159.913 L 256.5 160.913 L 269.5 160.913 Q 276.418 160.048 276 162.413 Q 275.742 163.869 263.5 174.913 L 261.5 174.913 L 247.5 173.913 L 235.5 172.913 L 221.5 171.913 L 181.891 169.217 L 178 159.413 L 180 154.913 Z " fill="rgb(249,200,0)" vector-effect="non-scaling-stroke" stroke-width="1" stroke="rgb(249,200,0)" stroke-linejoin="miter" stroke-linecap="butt" stroke-miterlimit="4"/><path d=" M 156 5.913 L 159 5.913 L 159 8.413 L 164 15.413 L 171 38.413 L 171 40.413 L 173 60.913 L 167.5 59.913 L 152.5 58.913 L 140.5 57.913 L 131 57.413 L 140 31.413 L 152 10.913 L 154 10.913 L 154 9.413 L 156 5.913 Z " fill="rgb(51,51,51)" vector-effect="non-scaling-stroke" stroke-width="1" stroke="rgb(51,51,51)" stroke-linejoin="miter" stroke-linecap="butt" stroke-miterlimit="4"/><path d=" M 0 28.913 L 3.5 28.913 L 6.5 30.913 L 15.5 32.913 L 17.5 34.913 L 20.5 34.913 L 22.5 36.913 L 25.5 36.913 L 52 51.413 L 47.5 51.913 L 46.5 50.913 L 35.5 50.913 L 34.5 49.913 L 9.5 48.913 L 6 47.913 L 0 32.413 L 0 28.913 Z " fill="rgb(51,51,51)" vector-effect="non-scaling-stroke" stroke-width="1" stroke="rgb(51,51,51)" stroke-linejoin="miter" stroke-linecap="butt" stroke-miterlimit="4"/><path d=" M 210.72 29.956 Q 212.213 31.864 211 36.413 L 210 47.413 L 209 61.413 L 208 63.913 L 200 62.913 L 201.127 55.436 L 202 48.413 Q 200.048 31.155 202 29.913 C 202.8 29.403 208.549 27.181 210.72 29.956 Z " fill="rgb(51,51,51)" vector-effect="non-scaling-stroke" stroke-width="1" stroke="rgb(51,51,51)" stroke-linejoin="miter" stroke-linecap="butt" stroke-miterlimit="4"/><path d=" M 52.791 134.898 L 104.5 138.913 Q 112.547 141.673 117.5 143.913 Q 121.76 145.839 130.5 148.913 L 138.5 149.913 L 140 151.413 L 136.5 151.913 L 122.5 150.913 L 109.5 149.913 L 108.5 148.913 L 95.5 148.913 L 94.5 147.913 L 82.5 147.913 L 81.5 146.913 L 68.5 146.913 L 67.5 145.913 L 46.49 144.273 L 49 138.913 L 52.791 134.898 Z " fill="rgb(249,200,0)" vector-effect="non-scaling-stroke" stroke-width="1" stroke="rgb(249,200,0)" stroke-linejoin="miter" stroke-linecap="butt" stroke-miterlimit="4"/><path d=" M 115.5 139.913 L 133.5 140.913 L 144.5 141.913 L 149 144.913 L 150.5 146.913 L 155.5 152.913 L 146.5 151.913 L 141.5 146.913 L 140.5 147.913 L 135.5 147.913 L 116.5 141.913 L 115.5 139.913 Z " fill="rgb(249,200,0)" vector-effect="non-scaling-stroke" stroke-width="1" stroke="rgb(249,200,0)" stroke-linejoin="miter" stroke-linecap="butt" stroke-miterlimit="4"/><path d=" M 151.509 142.375 L 156.566 142.516 L 163.5 142.913 L 166 143.913 L 165 148.413 L 167 153.913 L 160 151.413 L 157.5 143.913 L 157 146.413 L 158 148.413 L 155.5 146.913 L 151.509 142.375 Z " fill="rgb(249,200,0)" vector-effect="non-scaling-stroke" stroke-width="1" stroke="rgb(249,200,0)" stroke-linejoin="miter" stroke-linecap="butt" stroke-miterlimit="4"/><path d=" M 174.5 143.913 L 181 145.413 L 175.5 153.913 L 170.5 153.913 L 169.789 153.366 L 174.5 143.913 Z " fill="rgb(249,200,0)" vector-effect="non-scaling-stroke" stroke-width="1" stroke="rgb(249,200,0)" stroke-linejoin="miter" stroke-linecap="butt" stroke-miterlimit="4"/><path d=" M 184 144.913 L 190.5 145.913 L 202.5 146.913 L 217.5 147.913 L 228.5 148.913 L 243.5 149.913 L 280 151.913 L 279 157.413 L 276 162.413 L 180 154.413 L 184 144.913 Z " fill="rgb(249,200,0)" vector-effect="non-scaling-stroke" stroke-width="1" stroke="rgb(249,200,0)" stroke-linejoin="miter" stroke-linecap="butt" stroke-miterlimit="4"/></g></g></svg>