<?xml version="1.0" encoding="UTF-8" standalone="no"?><!-- Generator: Gravit.io --><svg xmlns="http://www.w3.org/2000/svg" xmlns:xlink="http://www.w3.org/1999/xlink" style="isolation:isolate" width="125pt" height="125pt"><defs><clipPath id="_clipPath_ufcUC6jNOUA3b0qWYMAp2K2lUKZpJYp7"><rect width="125" height="125"/></clipPath></defs><g clip-path="url(#_clipPath_ufcUC6jNOUA3b0qWYMAp2K2lUKZpJYp7)"><g><path d=" M 60.641 47.406 L 60.829 48.349 L 60.452 48.349 L 60.641 47.406 Z " fill="rgb(0,0,0)" vector-effect="non-scaling-stroke" stroke-width="1" stroke="rgb(0,0,0)" stroke-opacity="100" stroke-linejoin="miter" stroke-linecap="butt" stroke-miterlimit="4"/><path d=" M 60.641 49.292 L 60.829 50.235 L 60.452 50.235 L 60.641 49.292 Z " fill="rgb(0,0,0)" vector-effect="non-scaling-stroke" stroke-width="1" stroke="rgb(0,0,0)" stroke-opacity="100" stroke-linejoin="miter" stroke-linecap="butt" stroke-miterlimit="4"/><path d=" M 51.964 65.512 L 52.907 66.078 L 52.342 66.267 L 51.964 65.512 Z " fill="rgb(0,0,0)" vector-effect="non-scaling-stroke" stroke-width="1" stroke="rgb(0,0,0)" stroke-opacity="100" stroke-linejoin="miter" stroke-linecap="butt" stroke-miterlimit="4"/><line x1="54.228" y1="67.399" x2="54.605" y2="68.153" vector-effect="non-scaling-stroke" stroke-width="1" stroke="rgb(0,0,0)" stroke-opacity="100" stroke-linejoin="miter" stroke-linecap="butt" stroke-miterlimit="4"/><line x1="55.737" y1="68.53" x2="56.868" y2="70.039" vector-effect="non-scaling-stroke" stroke-width="1" stroke="rgb(0,0,0)" stroke-opacity="100" stroke-linejoin="miter" stroke-linecap="butt" stroke-miterlimit="4"/><path d=" M 63.281 69.285 L 63.847 70.982 L 63.093 70.605 L 63.281 69.285 Z " fill="rgb(0,0,0)" vector-effect="non-scaling-stroke" stroke-width="1" stroke="rgb(0,0,0)" stroke-opacity="100" stroke-linejoin="miter" stroke-linecap="butt" stroke-miterlimit="4"/><path d=" M 60.641 41.37 L 60.829 42.313 L 60.452 42.313 L 60.641 41.37 Z " fill="rgb(0,0,127)" vector-effect="non-scaling-stroke" stroke-width="1" stroke="rgb(0,0,127)" stroke-opacity="100" stroke-linejoin="miter" stroke-linecap="butt" stroke-miterlimit="4"/><path d=" M 60.641 44.388 L 60.829 47.217 L 60.452 47.217 L 60.641 44.388 Z " fill="rgb(0,0,127)" vector-effect="non-scaling-stroke" stroke-width="1" stroke="rgb(0,0,127)" stroke-opacity="100" stroke-linejoin="miter" stroke-linecap="butt" stroke-miterlimit="4"/><path d=" M 62.149 51.555 L 62.338 52.498 L 61.961 52.498 L 62.149 51.555 Z " fill="rgb(0,0,127)" vector-effect="non-scaling-stroke" stroke-width="1" stroke="rgb(0,0,127)" stroke-opacity="100" stroke-linejoin="miter" stroke-linecap="butt" stroke-miterlimit="4"/><path d=" M 62.149 53.064 L 62.715 54.007 L 61.961 53.63 L 62.149 53.064 Z " fill="rgb(0,0,127)" vector-effect="non-scaling-stroke" stroke-width="1" stroke="rgb(0,0,127)" stroke-opacity="100" stroke-linejoin="miter" stroke-linecap="butt" stroke-miterlimit="4"/><path d=" M 62.904 57.591 L 63.47 60.043 L 63.093 60.043 L 62.904 57.591 Z " fill="rgb(0,0,127)" vector-effect="non-scaling-stroke" stroke-width="1" stroke="rgb(0,0,127)" stroke-opacity="100" stroke-linejoin="miter" stroke-linecap="butt" stroke-miterlimit="4"/><path d=" M 63.281 61.363 L 63.847 61.363 L 63.847 63.06 L 64.036 63.626 L 63.281 61.363 Z " fill="rgb(0,0,127)" vector-effect="non-scaling-stroke" stroke-width="1" stroke="rgb(0,0,127)" stroke-opacity="100" stroke-linejoin="miter" stroke-linecap="butt" stroke-miterlimit="4"/><line x1="107.416" y1="67.021" x2="108.171" y2="68.153" vector-effect="non-scaling-stroke" stroke-width="1" stroke="rgb(0,0,127)" stroke-opacity="100" stroke-linejoin="miter" stroke-linecap="butt" stroke-miterlimit="4"/><line x1="54.605" y1="67.399" x2="54.982" y2="68.153" vector-effect="non-scaling-stroke" stroke-width="1" stroke="rgb(0,0,127)" stroke-opacity="100" stroke-linejoin="miter" stroke-linecap="butt" stroke-miterlimit="4"/><line x1="62.904" y1="67.399" x2="62.527" y2="68.153" vector-effect="non-scaling-stroke" stroke-width="1" stroke="rgb(0,0,127)" stroke-opacity="100" stroke-linejoin="miter" stroke-linecap="butt" stroke-miterlimit="4"/><path d=" M 20.843 53.441 L 35.367 54.573 L 36.498 54.573 L 37.63 54.573 L 39.893 54.95 L 46.117 55.327 L 46.683 56.082 L 47.626 57.591 L 49.135 58.911 L 51.399 61.174 L 54.794 64.947 L 51.587 65.135 L 50.644 65.135 L 50.078 65.135 L 39.893 64.381 L 33.103 63.626 L 22.352 55.705 L 21.598 54.95 L 20.843 53.441 Z  M 40.459 55.705 L 41.591 57.214 L 41.968 57.214 L 40.459 55.705 Z  M 38.573 56.836 L 38.95 57.591 L 39.327 57.591 L 38.573 56.836 Z  M 42.345 57.214 L 45.363 60.231 L 45.74 60.231 L 42.345 57.214 Z  M 40.459 58.345 L 42.345 60.609 L 42.722 60.609 L 40.459 58.345 Z  M 46.495 60.609 L 46.117 61.363 L 47.249 61.74 L 47.249 60.986 L 46.495 60.609 Z  M 43.477 60.986 L 44.609 62.495 L 44.986 62.495 L 43.477 60.986 Z  M 47.626 61.74 L 48.004 62.495 L 48.381 62.495 L 47.626 61.74 Z  M 48.758 62.495 L 48.381 63.249 L 49.135 63.249 L 48.758 62.495 Z  M 46.117 63.249 L 46.495 64.004 L 46.495 63.249 L 46.117 63.249 Z  M 49.512 63.249 L 50.267 64.381 L 50.644 64.381 L 49.512 63.249 Z " fill="rgb(193,120,181)" vector-effect="non-scaling-stroke" stroke-width="1" stroke="rgb(168,99,156)" stroke-linejoin="miter" stroke-linecap="butt" stroke-miterlimit="4"/><path d=" M 53.473 56.082 L 53.51 56.084 L 60.829 56.459 L 61.206 62.306 L 61.961 65.89 L 56.302 65.512 L 54.794 62.306 L 54.794 61.552 L 53.473 56.082 Z " fill="rgb(193,120,181)" vector-effect="non-scaling-stroke" stroke-width="1" stroke="rgb(168,99,156)" stroke-linejoin="miter" stroke-linecap="butt" stroke-miterlimit="4"/><path d=" M 61.206 56.459 L 62.527 56.836 L 67.808 56.836 L 69.883 57.214 Q 69.829 60.781 69.505 62.683 Q 69.286 63.97 68.636 66.293 L 64.601 65.89 L 64.413 65.135 L 64.224 65.89 L 62.845 65.934 L 62.48 65.269 L 61.206 56.459 Z  M 63.093 57.591 L 62.715 59.1 L 63.093 59.1 L 63.093 57.591 Z  M 63.47 59.1 L 63.093 60.986 L 63.47 60.986 L 63.47 59.1 Z  M 63.47 61.363 L 63.47 63.249 L 63.847 63.249 L 63.847 61.363 L 63.47 61.363 Z  M 64.224 63.249 L 63.847 64.758 L 64.224 64.758 L 64.224 63.249 Z " fill="rgb(193,120,181)" vector-effect="non-scaling-stroke" stroke-width="1" stroke="rgb(168,99,156)" stroke-linejoin="miter" stroke-linecap="butt" stroke-miterlimit="4"/><path d=" M 77.05 57.591 L 79.69 57.968 Q 78.636 61.208 77.946 62.919 Q 77.355 64.384 76.107 67.021 L 74.032 66.456 L 77.05 57.591 Z " fill="rgb(193,120,181)" vector-effect="non-scaling-stroke" stroke-width="1" stroke="rgb(193,120,181)" stroke-linejoin="miter" stroke-linecap="butt" stroke-miterlimit="4"/><path d=" M 82.142 59.1 L 91.573 59.1 L 95.345 59.854 L 101.004 62.117 L 107.228 66.644 L 109.114 69.473 L 77.427 67.021 L 79.69 60.797 L 79.69 59.477 L 82.142 59.1 Z " fill="rgb(193,120,181)" vector-effect="non-scaling-stroke" stroke-width="1" stroke="rgb(193,120,181)" stroke-linejoin="miter" stroke-linecap="butt" stroke-miterlimit="4"/><path d=" M 31.594 66.267 L 37.63 67.399 L 43.72 70.798 L 38.762 70.794 L 38.384 70.416 L 28.954 70.039 L 28.577 69.662 L 25.37 69.473 L 31.594 66.267 Z " fill="rgb(254,134,199)" vector-effect="non-scaling-stroke" stroke-width="1" stroke="rgb(254,134,199)" stroke-linejoin="miter" stroke-linecap="butt" stroke-miterlimit="4"/><path d=" M 38.384 66.644 L 54.228 67.776 L 54.605 68.153 L 57.246 68.153 L 58 68.907 L 58.189 68.153 L 62.904 68.907 L 63.281 68.53 L 65.167 68.53 L 65.544 68.907 L 68.374 68.907 L 67.996 72.68 L 64.413 72.68 L 64.224 72.114 L 63.658 72.302 L 61.018 72.302 L 60.829 71.737 L 60.452 71.737 L 60.452 72.302 L 59.886 72.302 L 59.132 72.302 L 58.377 71.925 L 48.947 71.548 L 47.815 71.171 L 47.06 71.548 L 40.648 68.53 L 38.384 67.021 L 38.384 66.644 Z  M 63.47 69.285 L 63.093 70.794 L 63.47 70.794 L 63.47 69.285 Z  M 57.811 70.039 L 57.434 70.794 L 58.189 70.794 L 57.811 70.039 Z " fill="rgb(254,134,199)" vector-effect="non-scaling-stroke" stroke-width="1" stroke="rgb(254,134,199)" stroke-linejoin="miter" stroke-linecap="butt" stroke-miterlimit="4"/><path d=" M 72.927 69.294 L 75.506 68.994 L 75.164 70.228 L 73.337 73.507 L 71.014 73.057 L 72.927 69.294 Z " fill="rgb(254,134,199)" vector-effect="non-scaling-stroke" stroke-width="1" stroke="rgb(254,134,199)" stroke-linejoin="miter" stroke-linecap="butt" stroke-miterlimit="4"/><path d=" M 76.484 69.662 L 80.633 69.662 L 81.011 70.039 L 85.537 70.039 L 85.915 70.416 L 90.819 70.416 L 91.196 70.794 L 95.345 70.794 L 95.722 71.171 L 110.623 71.925 L 111 72.868 L 110.646 75.787 L 108.548 75.698 L 104.399 75.698 L 98.74 75.32 L 94.214 74.943 L 88.932 74.566 L 74.409 73.434 L 76.484 69.662 Z " fill="rgb(254,134,199)" vector-effect="non-scaling-stroke" stroke-width="1" stroke="rgb(254,134,199)" stroke-linejoin="miter" stroke-linecap="butt" stroke-miterlimit="4"/><path d=" M 33.103 63.626 L 34.235 64.004 L 38.384 64.004 L 48.192 64.758 L 51.964 65.135 L 53.851 65.135 L 54.982 65.135 L 55.925 66.078 L 57.331 68.18 L 55.359 68.153 L 53.851 67.776 L 50.644 67.776 L 49.701 67.399 L 45.174 67.399 L 37.965 66.877 L 35.744 65.512 L 33.48 64.004 L 33.103 63.626 Z  M 52.53 65.89 L 52.907 66.644 L 52.907 65.89 L 52.53 65.89 Z " fill="rgb(254,134,199)" vector-effect="non-scaling-stroke" stroke-width="1" stroke="rgb(254,134,199)" stroke-linejoin="miter" stroke-linecap="butt" stroke-miterlimit="4"/><path d=" M 56.68 65.512 L 61.772 65.89 L 62.338 66.456 L 62.715 68.342 L 60.641 68.53 L 60.263 68.153 L 57.811 68.153 L 56.68 65.512 Z " fill="rgb(254,134,199)" vector-effect="non-scaling-stroke" stroke-width="1" stroke="rgb(254,134,199)" stroke-linejoin="miter" stroke-linecap="butt" stroke-miterlimit="4"/><path d=" M 62.715 65.89 L 64.224 65.89 L 68.562 66.267 L 68.751 67.587 L 68.374 68.907 L 63.093 68.53 L 62.715 65.89 Z " fill="rgb(254,134,199)" vector-effect="non-scaling-stroke" stroke-width="1" stroke="rgb(254,134,199)" stroke-linejoin="miter" stroke-linecap="butt" stroke-miterlimit="4"/><path d=" M 73.843 66.644 L 76.295 67.021 L 75.352 69.662 L 72.9 69.285 L 73.843 66.644 Z " fill="rgb(254,134,199)" vector-effect="non-scaling-stroke" stroke-width="1" stroke="rgb(254,134,199)" stroke-linejoin="miter" stroke-linecap="butt" stroke-miterlimit="4"/><path d=" M 77.345 67.185 L 90.064 67.776 L 99.872 68.53 L 105.153 68.907 Q 108.828 69.18 108.925 69.285 Q 109.697 70.115 110.623 71.925 L 76.452 69.722 L 77.345 67.185 Z " fill="rgb(254,134,199)" vector-effect="non-scaling-stroke" stroke-width="1" stroke="rgb(254,134,199)" stroke-linejoin="miter" stroke-linecap="butt" stroke-miterlimit="4"/><line x1="103.644" y1="85.128" x2="102.89" y2="86.26" vector-effect="non-scaling-stroke" stroke-width="1" stroke="rgb(127,0,0)" stroke-opacity="100" stroke-linejoin="miter" stroke-linecap="butt" stroke-miterlimit="4"/><line x1="61.395" y1="87.391" x2="60.641" y2="88.523" vector-effect="non-scaling-stroke" stroke-width="1" stroke="rgb(127,0,0)" stroke-opacity="100" stroke-linejoin="miter" stroke-linecap="butt" stroke-miterlimit="4"/><line x1="27.445" y1="88.9" x2="27.822" y2="89.655" vector-effect="non-scaling-stroke" stroke-width="1" stroke="rgb(127,0,0)" stroke-opacity="100" stroke-linejoin="miter" stroke-linecap="butt" stroke-miterlimit="4"/><line x1="59.509" y1="89.655" x2="58" y2="91.541" vector-effect="non-scaling-stroke" stroke-width="1" stroke="rgb(127,0,0)" stroke-opacity="100" stroke-linejoin="miter" stroke-linecap="butt" stroke-miterlimit="4"/><path d=" M 81.011 31.185 L 81.199 32.128 L 80.822 32.128 L 81.011 31.185 Z " fill="rgb(127,0,127)" vector-effect="non-scaling-stroke" stroke-width="1" stroke="rgb(127,0,127)" stroke-opacity="100" stroke-linejoin="miter" stroke-linecap="butt" stroke-miterlimit="4"/><path d=" M 8.018 37.221 L 24.427 38.352 L 26.313 39.107 L 34.423 44.765 L 36.31 46.274 L 46.094 55.233 L 44.42 55.327 L 39.516 54.95 L 38.007 54.573 L 35.744 54.573 L 28.954 54.196 L 20.843 53.592 L 19.146 51.932 L 17.826 50.989 L 17.26 50.046 L 15.94 48.726 L 12.544 44.954 L 8.018 37.221 Z  M 20.843 40.616 L 20.466 41.37 L 21.598 41.747 L 21.975 41.747 L 20.843 40.616 Z  M 20.843 42.125 L 20.466 42.879 L 21.598 42.879 L 20.843 42.125 Z  M 23.107 42.502 L 23.484 42.879 L 23.861 43.256 L 23.861 42.502 L 23.107 42.502 Z  M 23.107 44.011 L 23.484 44.765 L 23.861 44.765 L 23.107 44.011 Z  M 25.37 44.011 L 25.747 44.765 L 26.125 44.765 L 25.37 44.011 Z  M 26.125 44.765 L 26.125 45.52 L 27.633 46.274 L 28.011 46.274 L 26.125 44.765 Z  M 24.616 45.142 L 24.616 46.274 L 25.747 46.274 L 24.616 45.142 Z  M 26.879 46.651 L 26.502 47.406 L 27.633 47.783 L 26.879 46.651 Z  M 28.765 46.651 L 29.52 47.406 L 29.52 46.651 L 28.765 46.651 Z  M 30.651 47.783 L 30.274 48.537 L 31.028 48.537 L 30.651 47.783 Z  M 28.765 48.16 L 28.011 48.915 L 29.897 49.669 L 28.765 48.16 Z  M 31.406 48.537 L 32.915 50.423 L 37.441 53.819 L 37.819 53.819 L 31.406 48.537 Z " fill="rgb(121,183,206)" vector-effect="non-scaling-stroke" stroke-width="1" stroke="rgb(109,166,187)" stroke-linejoin="miter" stroke-linecap="butt" stroke-miterlimit="4"/><path d=" M 54.416 40.616 L 70.26 41.747 L 70.26 41.936 L 70.26 55.516 L 69.883 57.214 L 68.562 56.836 L 64.413 56.836 L 62.05 56.527 L 61.095 56.258 L 61.206 53.253 L 60.892 51.749 L 60.829 51.367 L 60.641 43.256 L 60.452 54.762 L 60.692 56.514 L 58.754 56.459 L 54.605 56.082 L 53.422 55.793 L 53.662 45.331 L 54.416 40.616 Z  M 60.829 41.37 L 60.452 42.502 L 60.829 42.502 L 60.829 41.37 Z  M 62.338 51.555 L 61.961 52.687 L 62.338 52.687 L 62.338 51.555 Z " fill="rgb(121,183,206)" vector-effect="non-scaling-stroke" stroke-width="1" stroke="rgb(109,166,187)" stroke-linejoin="miter" stroke-linecap="butt" stroke-miterlimit="4"/><path d=" M 80.431 42.554 L 83.463 42.879 L 82.331 49.858 L 79.753 57.926 L 77.05 57.402 L 78.181 54.762 L 80.445 43.068 L 80.431 42.554 Z " fill="rgb(121,183,206)" vector-effect="non-scaling-stroke" stroke-width="1" stroke="rgb(121,183,206)" stroke-linejoin="miter" stroke-linecap="butt" stroke-miterlimit="4"/><line x1="65.167" y1="21.754" x2="65.544" y2="22.509" vector-effect="non-scaling-stroke" stroke-width="1" stroke="rgb(127,127,127)" stroke-opacity="100" stroke-linejoin="miter" stroke-linecap="butt" stroke-miterlimit="4"/><line x1="61.395" y1="24.395" x2="61.018" y2="25.149" vector-effect="non-scaling-stroke" stroke-width="1" stroke="rgb(127,127,127)" stroke-opacity="100" stroke-linejoin="miter" stroke-linecap="butt" stroke-miterlimit="4"/><line x1="60.263" y1="26.281" x2="59.886" y2="27.036" vector-effect="non-scaling-stroke" stroke-width="1" stroke="rgb(127,127,127)" stroke-opacity="100" stroke-linejoin="miter" stroke-linecap="butt" stroke-miterlimit="4"/><path d=" M 21.598 78.715 L 24.05 79.093 L 28.954 79.47 L 38.762 80.224 L 44.043 80.601 L 59.32 81.733 L 59.32 83.242 L 60.52 82.86 L 61.727 82.688 L 63.994 82.502 L 65.12 81.285 L 67.619 82.299 L 63.352 87.368 L 61.206 89.843 L 59.509 91.918 L 57.057 93.993 L 56.491 94.559 Q 49.416 100.051 51.021 98.331 Q 51.277 98.057 51.776 97.577 L 52.342 96.822 L 57.434 92.107 L 58 91.541 L 63.847 84.185 Q 61.176 83.754 59.886 84.374 Q 59.2 84.703 58.189 85.694 L 57.434 87.957 L 54.605 91.541 L 52.719 93.05 Q 50.102 94.458 48.569 94.936 Q 47.277 95.339 44.797 95.69 Q 42.347 95.802 41.025 95.69 Q 38.71 95.495 34.612 94.181 L 29.897 91.541 L 28.011 89.843 Q 26.386 88.22 25.61 87.249 Q 24.607 85.994 23.107 83.431 L 21.598 78.715 Z " fill="rgb(226,78,64)" vector-effect="non-scaling-stroke" stroke-width="1" stroke="rgb(226,78,64)" stroke-linejoin="miter" stroke-linecap="butt" stroke-miterlimit="4"/><path d=" M 73.549 82.429 L 74.221 82.865 L 78.37 82.865 L 78.747 83.242 L 84.028 83.619 L 88.932 83.996 L 94.214 84.374 Q 106.643 81.323 104.21 85.128 Q 103.29 86.566 99.117 88.146 L 94.968 89.655 Q 86.174 90.59 81.765 88.9 C 79.053 87.861 76.453 87.025 74.786 84.562 Q 74.57 84.242 74.221 83.619 L 73.549 82.429 Z " fill="rgb(226,78,64)" vector-effect="non-scaling-stroke" stroke-width="1" stroke="rgb(226,78,64)" stroke-linejoin="miter" stroke-linecap="butt" stroke-miterlimit="4"/><path d=" M 22.541 73.057 L 26.313 73.811 L 35.744 74.189 L 36.121 74.566 L 40.648 74.566 L 41.025 74.943 L 45.929 74.943 L 46.306 75.32 L 50.833 75.32 L 51.21 75.698 L 56.114 75.698 L 58.086 76.083 Q 59.135 78.082 59.32 79.281 Q 59.452 80.136 59.32 81.733 L 58.377 81.356 L 48.947 80.979 L 44.043 80.601 L 38.762 80.224 L 28.954 79.47 L 24.05 79.093 L 21.598 78.715 L 21.598 75.132 L 22.541 73.057 Z " fill="rgb(249,200,0)" vector-effect="non-scaling-stroke" stroke-width="1" stroke="rgb(249,200,0)" stroke-linejoin="miter" stroke-linecap="butt" stroke-miterlimit="4"/><path d=" M 60.641 76.075 L 64.413 76.452 L 65.922 77.961 L 66.11 77.395 L 65.733 76.452 L 67.808 76.829 L 68.562 77.206 L 68.94 76.829 L 71.203 76.829 L 70.26 78.149 L 67.734 82.164 L 64.601 81.922 L 65.356 80.79 L 63.847 79.847 L 63.847 79.093 L 63.281 79.093 L 61.961 77.206 L 60.641 76.075 Z " fill="rgb(249,200,0)" vector-effect="non-scaling-stroke" stroke-width="1" stroke="rgb(249,200,0)" stroke-linejoin="miter" stroke-linecap="butt" stroke-miterlimit="4"/><path d=" M 72.9 77.206 L 81.011 77.584 L 81.388 77.961 L 86.292 77.961 L 86.669 78.338 L 91.196 78.338 L 91.573 78.715 L 96.477 78.715 L 96.854 79.093 L 101.381 79.093 L 101.758 79.47 L 106.662 79.47 Q 109.272 79.144 109.114 80.036 Q 109.017 80.585 104.399 84.751 L 103.644 84.751 L 98.363 84.374 L 93.836 83.996 L 88.555 83.619 L 73.614 82.602 L 72.146 78.904 L 72.9 77.206 Z " fill="rgb(249,200,0)" vector-effect="non-scaling-stroke" stroke-width="1" stroke="rgb(249,200,0)" stroke-linejoin="miter" stroke-linecap="butt" stroke-miterlimit="4"/><path d=" M 63.847 21 L 64.979 21 L 64.979 21.943 L 66.865 24.584 L 69.505 33.26 L 69.505 34.014 L 70.26 41.747 L 68.185 41.37 L 62.527 40.993 L 58 40.616 L 54.416 40.427 L 57.811 30.619 L 62.338 22.886 L 63.093 22.886 L 63.093 22.32 L 63.847 21 Z " fill="rgb(51,51,51)" vector-effect="non-scaling-stroke" stroke-width="1" stroke="rgb(51,51,51)" stroke-linejoin="miter" stroke-linecap="butt" stroke-miterlimit="4"/><path d=" M 5 29.676 L 6.32 29.676 L 7.452 30.431 L 10.847 31.185 L 11.601 31.94 L 12.733 31.94 L 13.488 32.694 L 14.619 32.694 L 24.616 38.164 L 22.918 38.352 L 22.541 37.975 L 18.391 37.975 L 18.014 37.598 L 8.584 37.221 L 7.263 36.843 L 5 30.996 L 5 29.676 Z " fill="rgb(51,51,51)" vector-effect="non-scaling-stroke" stroke-width="1" stroke="rgb(51,51,51)" stroke-linejoin="miter" stroke-linecap="butt" stroke-miterlimit="4"/><path d=" M 84.489 30.07 Q 85.052 30.79 84.594 32.505 L 84.217 36.655 L 83.84 41.936 L 83.463 42.879 L 80.445 42.502 L 80.87 39.681 L 81.199 37.032 Q 80.463 30.522 81.199 30.053 C 81.501 29.861 83.67 29.023 84.489 30.07 Z " fill="rgb(51,51,51)" vector-effect="non-scaling-stroke" stroke-width="1" stroke="rgb(51,51,51)" stroke-linejoin="miter" stroke-linecap="butt" stroke-miterlimit="4"/><path d=" M 24.914 69.657 L 44.42 71.171 Q 47.455 72.212 49.324 73.057 Q 50.931 73.784 54.228 74.943 L 57.246 75.32 L 57.811 75.886 L 56.491 76.075 L 51.21 75.698 L 46.306 75.32 L 45.929 74.943 L 41.025 74.943 L 40.648 74.566 L 36.121 74.566 L 35.744 74.189 L 30.84 74.189 L 30.463 73.811 L 22.537 73.193 L 23.484 71.171 L 24.914 69.657 Z " fill="rgb(249,200,0)" vector-effect="non-scaling-stroke" stroke-width="1" stroke="rgb(249,200,0)" stroke-linejoin="miter" stroke-linecap="butt" stroke-miterlimit="4"/><path d=" M 48.569 71.548 L 55.359 71.925 L 59.509 72.302 L 61.206 73.434 L 61.772 74.189 L 63.658 76.452 L 60.263 76.075 L 58.377 74.189 L 58 74.566 L 56.114 74.566 L 48.947 72.302 L 48.569 71.548 Z " fill="rgb(249,200,0)" vector-effect="non-scaling-stroke" stroke-width="1" stroke="rgb(249,200,0)" stroke-linejoin="miter" stroke-linecap="butt" stroke-miterlimit="4"/><path d=" M 62.153 72.477 L 64.06 72.53 L 66.676 72.68 L 67.619 73.057 L 67.242 74.754 L 67.996 76.829 L 65.356 75.886 L 64.413 73.057 L 64.224 74 L 64.601 74.754 L 63.658 74.189 L 62.153 72.477 Z " fill="rgb(249,200,0)" vector-effect="non-scaling-stroke" stroke-width="1" stroke="rgb(249,200,0)" stroke-linejoin="miter" stroke-linecap="butt" stroke-miterlimit="4"/><path d=" M 70.826 73.057 L 73.278 73.623 L 71.203 76.829 L 69.317 76.829 L 69.049 76.623 L 70.826 73.057 Z " fill="rgb(249,200,0)" vector-effect="non-scaling-stroke" stroke-width="1" stroke="rgb(249,200,0)" stroke-linejoin="miter" stroke-linecap="butt" stroke-miterlimit="4"/><path d=" M 74.409 73.434 L 76.861 73.811 L 81.388 74.189 L 87.046 74.566 L 91.196 74.943 L 96.854 75.32 L 110.623 76.075 L 110.246 78.149 L 109.114 80.036 L 72.9 77.018 L 74.409 73.434 Z " fill="rgb(249,200,0)" vector-effect="non-scaling-stroke" stroke-width="1" stroke="rgb(249,200,0)" stroke-linejoin="miter" stroke-linecap="butt" stroke-miterlimit="4"/></g></g></svg>